<?xml version="1.0" encoding="iso-8859-1"?>
<!-- Uploaded to: SVG Repo, www.svgrepo.com, Generator: SVG Repo Mixer Tools -->
<svg height="800px" width="800px" version="1.1" id="Layer_1" xmlns="http://www.w3.org/2000/svg" xmlns:xlink="http://www.w3.org/1999/xlink" 
	 viewBox="0 0 512 512" xml:space="preserve">
<path style="fill:#FCD577;" d="M224.937,54.633L13.587,420.702c-13.857,24.002,3.464,54.003,31.178,54.003h422.701
	c27.715,0,45.036-30.002,31.178-54.003L287.294,54.633C273.437,30.631,238.795,30.631,224.937,54.633z"/>
<polygon style="fill:#FF6F52;" points="315.717,221.779 235.027,221.779 197.844,302.627 227.075,302.627 196.515,403.258 
	294.837,302.627 258.963,302.627 "/>
<path d="M505.957,416.744L294.606,50.676c-8.057-13.957-22.489-22.289-38.604-22.29c-0.001,0,0,0-0.001,0
	c-16.116,0-30.548,8.333-38.607,22.29L6.044,416.744c-8.058,13.957-8.058,30.621,0,44.578c8.057,13.957,22.49,22.29,38.607,22.29
	h72.986c4.738,0,8.576-3.84,8.576-8.576c0-4.737-3.839-8.577-8.576-8.577H44.651c-9.916,0-18.795-5.126-23.752-13.713
	c-4.957-8.587-4.957-18.839,0-27.425L232.249,59.253c4.958-8.587,13.838-13.713,23.752-13.713c9.914,0,18.794,5.126,23.751,13.713
	l211.351,366.069c4.957,8.587,4.957,18.839-0.001,27.425c-4.957,8.587-13.837,13.713-23.751,13.713H146.225
	c-4.738,0-8.576,3.84-8.576,8.576c0,4.737,3.839,8.577,8.576,8.577H467.35c16.116,0,30.548-8.333,38.606-22.289
	C514.014,447.367,514.015,430.701,505.957,416.744z"/>
<path d="M290.582,114.606L263.92,68.427c-0.13-0.228-0.244-0.408-0.332-0.544c-0.988-1.565-2.469-2.787-4.24-3.451
	c-1.039-0.39-2.198-0.596-3.348-0.596c-0.3,0-0.572,0.014-0.803,0.032c-1.131,0.066-2.264,0.358-3.335,0.892
	c-1.57,0.786-2.799,1.969-3.769,3.64L36.743,434.473c-0.112,0.193-0.199,0.357-0.265,0.487c-0.836,1.569-1.178,3.384-0.93,5.2
	c0.317,2.314,1.568,4.568,3.345,6.029c0.95,0.781,2.057,1.348,3.246,1.664c0.778,0.207,1.623,0.311,2.511,0.311H467.35
	c0.234,0,0.428-0.007,0.581-0.015c1.746-0.064,3.467-0.662,4.908-1.767c1.875-1.44,3.217-3.671,3.591-5.969
	c0.073-0.454,0.111-0.913,0.111-1.373c0-1.577-0.419-3.07-1.283-4.57l-169-292.712c-2.369-4.102-7.615-5.507-11.715-3.139
	c-4.102,2.368-5.507,7.614-3.139,11.715l162.05,280.677H58.548L255.999,89.014l19.728,34.169c2.369,4.103,7.616,5.508,11.715,3.139
	C291.545,123.954,292.951,118.708,290.582,114.606z"/>
<path d="M323.21,218.155c-1.475-2.839-4.408-4.621-7.609-4.621h-80.689c-3.349,0-6.392,1.95-7.791,4.993l-11.949,25.98
	c-1.979,4.303-0.096,9.396,4.208,11.376c4.301,1.978,9.396,0.095,11.375-4.208l9.653-20.987h58.693l-47.274,67.343
	c-1.838,2.62-2.066,6.044-0.59,8.883c1.475,2.839,4.408,4.621,7.609,4.621h15.505l-59.539,60.937l20.354-67.021
	c0.788-2.598,0.301-5.418-1.317-7.6c-1.617-2.182-4.173-3.468-6.889-3.468h-15.846l7.192-15.638
	c1.979-4.303,0.096-9.396-4.208-11.376c-4.307-1.978-9.396-0.095-11.375,4.208l-12.785,27.798c-1.221,2.655-1.006,5.75,0.571,8.211
	c1.577,2.461,4.299,3.95,7.22,3.95h17.662l-27.198,89.563c-1.148,3.783,0.437,7.861,3.839,9.873
	c1.359,0.804,2.867,1.195,4.364,1.195c2.252,0,4.479-0.885,6.137-2.583l98.322-100.631c2.412-2.468,3.109-6.141,1.77-9.321
	c-1.339-3.18-4.454-5.249-7.904-5.249h-19.375l47.274-67.343C324.458,224.419,324.687,220.995,323.21,218.155z"/>
</svg>